<svg xmlns="http://www.w3.org/2000/svg" version="1.1" viewBox="-5.0 -10.0 110.0 135.0" fill="#8dbb47" stroke="#8dbb47">
 <path d="m90.387 26.18c-0.875-1.4805-2.7891-1.9766-4.2812-1.0977-1.4844 0.87891-1.9766 2.7969-1.0977 4.2812 3.6758 6.2109 5.6172 13.348 5.6172 20.637 0 22.398-18.227 40.625-40.629 40.625-7.2891 0-14.426-1.9453-20.637-5.6172-1.4805-0.87109-3.3984-0.38281-4.2773 1.1016-0.87891 1.4883-0.38672 3.4023 1.1016 4.2812 7.1719 4.2422 15.41 6.4844 23.816 6.4844 25.848 0 46.879-21.027 46.879-46.875 0-8.4102-2.2461-16.648-6.4922-23.82z"/>
 <path d="m9.3711 50c0-22.398 18.227-40.625 40.629-40.625 7.2891 0 14.426 1.9453 20.637 5.6172 1.4844 0.87891 3.3984 0.38672 4.2773-1.1016 0.87891-1.4883 0.38672-3.4023-1.1016-4.2812-7.168-4.2422-15.406-6.4844-23.812-6.4844-25.848 0-46.879 21.027-46.879 46.875 0 8.4102 2.2422 16.648 6.4922 23.82 0.58594 0.98438 1.625 1.5352 2.6914 1.5352 0.53906 0 1.0898-0.14062 1.5898-0.4375 1.4844-0.87891 1.9766-2.7969 1.0977-4.2812-3.6758-6.207-5.6211-13.348-5.6211-20.637z"/>
 <path d="m78.715 21.281c0.16016 0.125 0.31641 0.28125 0.46875 0.375 0.1875 0.125 0.375 0.21875 0.5625 0.28125 0.19141 0.09375 0.375 0.15625 0.56641 0.1875 0.21484 0.03125 0.40625 0.0625 0.62109 0.0625 0.19141 0 0.41016-0.03125 0.59375-0.0625 0.21875-0.03125 0.40625-0.09375 0.59375-0.1875 0.1875-0.0625 0.37109-0.15625 0.53125-0.28125 0.1875-0.09375 0.33984-0.25 0.49609-0.375 0.28516-0.28125 0.5-0.625 0.65625-1.0312 0.16016-0.375 0.25-0.78125 0.25-1.1875 0-0.8125-0.33984-1.625-0.90625-2.2188-0.15625-0.125-0.3125-0.25-0.49609-0.375-0.16016-0.125-0.34375-0.21875-0.53125-0.28125-0.19141-0.09375-0.375-0.15625-0.59375-0.1875-0.375-0.09375-0.8125-0.09375-1.2188 0-0.19141 0.03125-0.375 0.09375-0.56641 0.1875-0.1875 0.0625-0.375 0.15625-0.5625 0.28125l-0.46875 0.375c-0.125 0.15625-0.28125 0.3125-0.375 0.46875-0.11719 0.1875-0.21094 0.375-0.27734 0.5625-0.089844 0.1875-0.15625 0.375-0.1875 0.5625-0.066406 0.21875-0.066406 0.4375-0.066406 0.625 0 0.40625 0.066406 0.8125 0.25 1.1875 0.16406 0.40625 0.38281 0.71875 0.66016 1.0312z"/>
 <path d="m21.281 78.719c-1.1875-1.1562-3.2812-1.1562-4.4375 0-0.28125 0.3125-0.5 0.625-0.65625 1.0312-0.15625 0.375-0.25 0.78125-0.25 1.1875 0 0.8125 0.34375 1.625 0.90625 2.2188 0.59375 0.5625 1.4062 0.90625 2.2188 0.90625s1.6289-0.34375 2.2188-0.90625c0.125-0.15625 0.28125-0.3125 0.375-0.46875 0.125-0.1875 0.21875-0.375 0.28125-0.5625 0.09375-0.1875 0.15625-0.375 0.19141-0.5625 0.0625-0.21875 0.0625-0.4375 0.0625-0.625 0-0.40625-0.0625-0.8125-0.25-1.1875-0.16016-0.375-0.38281-0.71875-0.66016-1.0312z"/>
 <path d="m50 18.75c-17.23 0-31.25 14.02-31.25 31.25s14.02 31.25 31.25 31.25 31.25-14.02 31.25-31.25-14.02-31.25-31.25-31.25zm20.133 16.488c-2.2109 0.53516-4.4414 0.98828-6.6953 1.3438-0.73828-3.4297-1.7695-6.6016-3.0742-9.3047 3.8945 1.7852 7.2539 4.5391 9.7695 7.9609zm4.8672 14.762c0 3.2188-0.63281 6.2891-1.7422 9.1172-2.9102-0.76172-5.8555-1.3984-8.8359-1.8672 0.26172-2.3984 0.41016-4.8359 0.41016-7.25s-0.14844-4.8477-0.40625-7.2422c2.9805-0.47266 5.9297-1.1094 8.8359-1.8711 1.1055 2.8281 1.7383 5.8945 1.7383 9.1133zm-25 25c-2.3906 0-5.5234-4.5586-7.2617-12.32 4.832-0.40234 9.6953-0.40234 14.523 0-1.7383 7.7617-4.8711 12.32-7.2617 12.32zm-8.2422-18.5c-0.21094-2.0391-0.33594-4.1953-0.33594-6.5 0-2.2969 0.12891-4.4531 0.33594-6.4844 2.7305 0.24219 5.4766 0.41016 8.2422 0.41016 2.7617 0 5.5078-0.16406 8.2422-0.41016 0.20703 2.0352 0.33594 4.1875 0.33594 6.4844 0 2.3047-0.12891 4.4609-0.33594 6.5-5.4844-0.48438-11-0.48438-16.484 0zm-16.758-6.5c0-3.2188 0.63281-6.2852 1.7422-9.1133 2.9102 0.76172 5.8555 1.4023 8.8359 1.8711-0.25781 2.3945-0.40625 4.8242-0.40625 7.2422s0.14844 4.8516 0.41016 7.25c-2.9844 0.46875-5.9297 1.1016-8.8359 1.8672-1.1133-2.8281-1.7461-5.8984-1.7461-9.1172zm25-25c2.3906 0 5.5234 4.5586 7.2617 12.32-4.832 0.40234-9.6953 0.40234-14.523 0 1.7383-7.7617 4.8711-12.32 7.2617-12.32zm-10.359 2.2734c-1.3047 2.7031-2.3359 5.875-3.0742 9.3047-2.2539-0.35156-4.4844-0.80859-6.6953-1.3438 2.5117-3.418 5.8711-6.1719 9.7695-7.9609zm-9.7734 37.488c2.2109-0.53516 4.4414-0.98828 6.6953-1.3438 0.73828 3.4297 1.7695 6.6016 3.0742 9.3047-3.8945-1.7852-7.2539-4.5391-9.7695-7.9609zm30.492 7.9648c1.3047-2.7031 2.3359-5.875 3.0742-9.3047 2.2539 0.35156 4.4844 0.80859 6.6953 1.3438-2.5117 3.418-5.8711 6.1719-9.7695 7.9609z"/>
</svg>