<svg version="1.1" id="Layer_1" xmlns="http://www.w3.org/2000/svg" xmlns:xlink="http://www.w3.org/1999/xlink" x="0px" y="0px"
	 width="100%" viewBox="0 0 1024 1024" enable-background="new 0 0 1024 1024" xml:space="preserve">
<path fill="#8dbb47" opacity="1.000000" stroke="none" 
	d="
M857.804565,641.890686 
	C867.627014,616.061035 873.985962,589.773071 877.708984,562.800842 
	C879.920227,546.781128 880.930054,530.714417 880.930725,514.546997 
	C880.931335,501.114655 889.985168,491.608673 902.212952,491.687256 
	C914.508667,491.766266 923.380432,501.339600 923.266602,514.740845 
	C922.844055,564.490967 914.066833,612.671631 896.243713,659.194702 
	C873.559692,718.406128 839.008484,769.662170 792.708252,812.844238 
	C743.072327,859.137390 685.436218,891.360596 619.806458,909.080139 
	C580.310120,919.743896 540.091980,924.610596 499.238495,923.075195 
	C453.666260,921.362427 409.427307,912.644714 366.760712,896.223083 
	C304.630219,872.309998 251.592667,835.293884 207.109558,785.900024 
	C201.426743,779.589905 196.183670,772.884705 190.701797,766.392151 
	C189.659241,765.157410 189.006073,763.480042 186.925262,762.913208 
	C185.501877,765.154846 186.032074,767.686584 186.029739,770.064697 
	C186.000793,799.561707 185.996460,829.058838 186.062698,858.555725 
	C186.076218,864.576172 184.932541,870.135254 180.958542,874.861023 
	C175.233307,881.669617 166.460403,884.120117 157.903275,881.295959 
	C150.129684,878.730469 144.289185,870.958191 143.751434,862.427856 
	C143.678146,861.265320 143.706039,860.095581 143.705887,858.929199 
	C143.698029,800.434937 143.690216,741.940613 143.688934,683.446350 
	C143.688782,676.612122 143.707382,676.684143 150.594330,676.561768 
	C209.876587,675.508484 269.157623,677.121643 328.439972,676.628540 
	C340.922791,676.524658 349.960693,685.344849 350.068298,697.324890 
	C350.172089,708.879456 340.633759,718.285950 328.514923,718.305298 
	C291.351990,718.364746 254.188904,718.317444 217.025940,718.362549 
	C214.780350,718.365234 212.344070,717.656799 209.377350,720.180786 
	C223.144424,741.137390 239.229950,760.234009 257.356445,777.559204 
	C316.853973,834.426270 387.419067,868.963806 469.182159,878.431580 
	C647.315735,899.058716 801.330505,793.199646 857.804565,641.890686 
z"/>
<path fill="#8dbb47" opacity="1.000000" stroke="none" 
	d="
M713.630554,155.278534 
	C762.923889,182.997482 804.200928,219.482224 839.009766,263.990936 
	C840.351990,261.222626 839.944885,259.046173 839.947998,256.959412 
	C839.993103,226.795486 839.943054,196.631378 840.016846,166.467560 
	C840.047424,153.966888 847.846069,144.605484 858.696289,143.700363 
	C871.939636,142.595596 882.077820,151.679337 882.252502,164.997818 
	C882.385864,175.161911 882.290710,185.329041 882.291138,195.494827 
	C882.293152,244.657227 882.294983,293.819611 882.291626,342.982025 
	C882.291199,349.462128 882.277405,349.432373 875.680359,349.430420 
	C816.185547,349.413025 756.690674,349.424713 697.195862,349.380493 
	C686.837830,349.372772 678.989197,343.261658 676.735596,333.733673 
	C673.519470,320.136353 683.287048,307.718384 697.437256,307.693359 
	C734.933899,307.627014 772.430664,307.686310 809.927368,307.645447 
	C812.010132,307.643188 814.248962,308.267548 816.204712,306.839478 
	C816.703186,304.688049 815.242554,303.360291 814.225708,301.929626 
	C762.872864,229.673004 694.463745,181.518082 609.163696,157.619781 
	C570.192505,146.701309 530.236267,142.806152 489.932617,145.589249 
	C407.005035,151.315643 333.757416,181.188278 270.861847,235.843918 
	C233.255646,268.523376 203.607483,307.355225 181.851120,352.124481 
	C165.517532,385.734985 154.495804,421.026337 149.133316,458.104736 
	C146.577652,475.775635 145.153915,493.457947 145.096924,511.294556 
	C145.053116,525.006104 135.985535,534.488831 123.479988,534.289551 
	C111.248413,534.094727 102.621475,524.520569 102.766075,510.949951 
	C103.590889,433.541443 123.815735,361.685822 165.063034,296.042358 
	C210.035797,224.469986 271.281403,171.479797 348.550598,137.188126 
	C385.003326,121.010582 423.149750,110.722481 462.741150,105.843010 
	C493.096436,102.101852 523.492615,101.668427 553.925293,104.806023 
	C610.501099,110.638962 663.646912,127.358162 713.630554,155.278534 
z"/>
<path fill="#8dbb47" opacity="1.000000" stroke="none" 
	d="
M505.429047,655.605164 
	C522.607178,655.889343 539.201904,655.309326 555.066467,649.102600 
	C577.089722,640.486511 589.481323,623.828064 593.517944,601.154663 
	C597.660217,577.887939 588.108276,559.593750 566.513672,546.351929 
	C549.639038,536.004456 531.181335,529.245178 512.740662,522.441284 
	C491.799530,514.714783 470.636078,507.436737 451.885803,494.927704 
	C425.781158,477.512268 409.845459,453.378174 410.288025,421.693848 
	C410.786011,386.039093 426.590973,358.049164 458.942749,340.762177 
	C467.686066,336.090179 476.987305,332.873291 486.650513,331.025970 
	C491.038177,330.187164 491.936096,328.225525 491.871033,324.309326 
	C491.693817,313.647675 491.946503,302.978638 491.751038,292.317627 
	C491.678040,288.337555 493.286621,287.006531 497.042755,287.039795 
	C507.706482,287.134369 518.372498,287.130432 529.035889,287.012451 
	C532.910706,286.969574 534.306396,288.595917 534.249146,292.421356 
	C534.092041,302.916962 534.452393,313.425629 534.079773,323.910339 
	C533.910095,328.687744 535.570068,330.563934 540.122437,331.656067 
	C565.936951,337.849121 586.282776,352.008331 600.167175,374.743988 
	C609.893372,390.670441 614.231384,408.413879 615.961060,426.857849 
	C616.249451,429.932495 615.119995,431.465424 611.755859,431.430420 
	C600.592468,431.314178 589.426636,431.317535 578.263000,431.415710 
	C575.126587,431.443268 573.907593,430.243866 573.582031,427.095978 
	C572.422485,415.884583 569.235962,405.286926 563.724243,395.365875 
	C556.433838,382.243011 545.433350,374.326630 530.748474,371.888153 
	C514.287903,369.154846 497.962067,369.458038 481.979187,375.194000 
	C459.618317,383.218903 447.166199,413.904480 454.188019,436.001862 
	C457.984253,447.948486 467.355133,454.960052 477.447784,461.068573 
	C494.808472,471.576050 514.026428,477.866852 532.881836,484.945221 
	C554.889771,493.207092 576.969849,501.342865 596.067017,515.549805 
	C618.386963,532.154236 631.837524,554.002747 635.443604,581.878845 
	C640.832336,623.534790 616.884766,669.579163 570.669373,687.447876 
	C560.508301,691.376587 550.128052,694.328064 539.414429,695.884766 
	C534.977051,696.529480 534.053467,698.436768 534.129150,702.396729 
	C534.326538,712.724426 534.065430,723.060974 534.272400,733.388245 
	C534.353882,737.456238 532.959961,739.112244 528.829224,739.049194 
	C518.333496,738.888855 507.833252,738.901855 497.336456,739.006348 
	C493.349182,739.046143 491.668640,737.579102 491.748871,733.410645 
	C491.947693,723.083191 491.572968,712.741394 491.911804,702.421265 
	C492.064453,697.771179 490.358093,696.116699 485.953796,695.264038 
	C455.138947,689.297974 430.202332,673.916138 412.307220,647.908752 
	C399.877991,629.845032 393.369202,609.514282 390.698425,587.875488 
	C390.271210,584.414307 389.987152,580.933716 389.713776,577.455994 
	C389.518951,574.977539 390.712769,573.783081 393.244904,573.787537 
	C404.742401,573.807983 416.240295,573.825928 427.737335,573.746094 
	C430.625488,573.726074 431.469604,575.398621 431.720154,577.778931 
	C432.434570,584.566711 433.513000,591.307312 435.393707,597.858887 
	C440.404724,615.314819 448.084808,631.211609 463.176666,642.344788 
	C473.354431,649.852844 485.028137,653.512451 497.520538,654.773621 
	C500.003510,655.024292 502.483337,655.305725 505.429047,655.605164 
z"/>
</svg>