<svg version="1.1" id="Layer_1" xmlns="http://www.w3.org/2000/svg" xmlns:xlink="http://www.w3.org/1999/xlink" x="0px" y="0px"
	 width="100%" viewBox="0 0 1200 1200" enable-background="new 0 0 1200 1200" xml:space="preserve">
<path opacity="0" stroke="none" 
	d="
M671.000000,1201.000000 
	C447.333344,1201.000000 224.166672,1201.000000 1.000000,1201.000000 
	C1.000000,801.000000 1.000000,401.000000 1.000000,1.000000 
	C401.000000,1.000000 801.000000,1.000000 1201.000000,1.000000 
	C1201.000000,401.000000 1201.000000,801.000000 1201.000000,1201.000000 
	C1024.500000,1201.000000 848.000000,1201.000000 671.000000,1201.000000 
M526.001526,206.500000 
	C526.001526,188.072708 526.001526,169.645416 526.001526,151.318390 
	C438.212860,151.318390 350.994659,151.318390 263.867798,151.318390 
	C263.867798,176.368774 263.867798,201.094284 263.867798,226.220184 
	C308.432709,226.220184 352.651154,226.220184 396.869598,226.220184 
	C397.161407,226.647552 397.453217,227.074905 397.745026,227.502274 
	C319.362305,305.807831 240.979568,384.113373 163.058456,461.957764 
	C180.462708,479.424377 197.841110,496.865021 215.596970,514.684509 
	C293.702576,436.541626 371.962677,358.244171 450.992065,279.177032 
	C450.992065,324.521698 450.992065,368.869385 450.992065,413.270081 
	C476.278717,413.270081 501.025269,413.270081 526.001526,413.270081 
	C526.001526,344.474518 526.001526,275.987274 526.001526,206.500000 
M1021.060120,225.444412 
	C1008.464111,211.971359 993.439209,202.117661 975.847229,195.465149 
	C975.847229,180.666336 975.847229,165.917877 975.847229,151.307495 
	C950.652710,151.307495 925.915588,151.307495 900.960327,151.307495 
	C900.960327,166.255875 900.960327,180.892227 900.960327,195.507248 
	C899.868530,195.993668 898.972656,196.403687 898.068359,196.794052 
	C855.221191,215.287872 829.442261,247.327377 826.527588,294.139771 
	C823.657288,340.239624 844.512756,375.289703 884.022461,399.014526 
	C901.734924,409.650513 921.387817,413.060944 941.812317,413.892487 
	C959.160706,414.598755 972.041321,426.777100 975.325562,444.139130 
	C978.508911,460.967834 970.193542,477.757538 955.143921,484.888245 
	C939.885925,492.117676 920.659729,488.171265 909.969604,475.720428 
	C903.893311,468.643280 901.347473,460.255768 900.836060,451.296570 
	C875.688477,451.296570 850.947876,451.296570 826.219055,451.296570 
	C825.282471,487.053467 846.692871,535.548279 901.233032,556.846069 
	C901.233032,571.411743 901.233032,586.154236 901.233032,600.661499 
	C926.414734,600.661499 951.153076,600.661499 976.126160,600.661499 
	C976.126160,585.683716 976.126160,571.044800 976.126160,556.417664 
	C978.177856,555.572083 980.053772,554.880798 981.861206,554.041992 
	C1023.431458,534.749573 1047.621582,502.590668 1050.676636,456.662048 
	C1053.832642,409.216614 1024.760620,365.081970 980.771790,346.900696 
	C965.737671,340.686829 950.007629,339.095459 934.000732,338.033081 
	C916.267578,336.856110 902.325195,322.045319 901.098511,304.222626 
	C899.770081,284.922272 911.227478,268.971832 929.600525,264.543640 
	C947.601990,260.204987 966.173157,269.133545 972.817078,285.727814 
	C974.738159,290.526031 975.490173,295.792267 976.729919,300.654846 
	C1001.414673,300.654846 1026.159424,300.654846 1050.893066,300.654846 
	C1051.330444,274.107391 1040.646851,247.049820 1021.060120,225.444412 
M750.999390,977.500000 
	C750.999390,802.072571 750.999390,626.645203 750.999390,451.267761 
	C725.679504,451.267761 700.935669,451.267761 676.274536,451.267761 
	C676.274536,651.291687 676.274536,851.029236 676.274536,1050.717529 
	C701.304626,1050.717529 726.046204,1050.717529 750.999390,1050.717529 
	C750.999390,1026.453857 750.999390,1002.476929 750.999390,977.500000 
M529.651306,1051.002075 
	C553.399719,1051.002075 577.148132,1051.002075 600.656860,1051.002075 
	C600.656860,900.579834 600.656860,750.843323 600.656860,601.347534 
	C575.573364,601.347534 550.833801,601.347534 526.000305,601.347534 
	C526.000305,602.355896 526.000305,603.016724 526.000305,603.677612 
	C526.000244,751.341248 526.000061,899.004944 526.001099,1046.668579 
	C526.001099,1047.668335 525.677368,1048.876953 526.125122,1049.608276 
	C526.563965,1050.325317 527.796326,1050.556763 529.651306,1051.002075 
M826.000732,878.500000 
	C826.000732,935.928101 826.000732,993.356201 826.000732,1050.706787 
	C851.314331,1050.706787 876.050476,1050.706787 900.722778,1050.706787 
	C900.722778,925.677612 900.722778,800.946045 900.722778,676.283813 
	C875.711487,676.283813 850.979492,676.283813 826.000732,676.283813 
	C826.000732,743.556152 826.000732,810.528076 826.000732,878.500000 
M975.999817,930.500000 
	C975.999817,970.593872 975.999817,1010.687683 975.999817,1050.699829 
	C1001.286621,1050.699829 1026.022949,1050.699829 1050.716919,1050.699829 
	C1050.716919,925.664490 1050.716919,800.932617 1050.716919,676.287415 
	C1025.656738,676.287415 1000.913391,676.287415 976.274231,676.287415 
	C976.121704,676.721680 976.025513,676.867554 976.025513,677.013367 
	C976.012634,761.175598 976.006287,845.337769 975.999817,930.500000 
M375.999756,1010.500000 
	C375.999756,1023.929077 375.999756,1037.358154 375.999756,1050.701538 
	C401.285889,1050.701538 426.020905,1050.701538 450.691284,1050.701538 
	C450.691284,950.675049 450.691284,850.950073 450.691284,751.292969 
	C425.643982,751.292969 400.906921,751.292969 375.999756,751.292969 
	C375.999756,837.559143 375.999756,923.529602 375.999756,1010.500000 
M274.500000,900.999390 
	C258.406189,900.999390 242.312378,900.999390 226.289764,900.999390 
	C226.289764,951.318665 226.289764,1001.052124 226.289764,1050.709106 
	C251.313919,1050.709106 276.048004,1050.709106 300.713409,1050.709106 
	C300.713409,1000.684753 300.713409,950.955322 300.713409,901.275330 
	C300.117065,901.149841 299.805908,901.027771 299.494446,901.027100 
	C291.496307,901.010132 283.498169,901.005859 274.500000,900.999390 
z"/>
<path fill="#8dbb47" opacity="1.000000" stroke="none" 
	d="
M526.001526,207.000000 
	C526.001526,275.987274 526.001526,344.474518 526.001526,413.270081 
	C501.025269,413.270081 476.278717,413.270081 450.992065,413.270081 
	C450.992065,368.869385 450.992065,324.521698 450.992065,279.177032 
	C371.962677,358.244171 293.702576,436.541626 215.596970,514.684509 
	C197.841110,496.865021 180.462708,479.424377 163.058456,461.957764 
	C240.979568,384.113373 319.362305,305.807831 397.745026,227.502274 
	C397.453217,227.074905 397.161407,226.647552 396.869598,226.220184 
	C352.651154,226.220184 308.432709,226.220184 263.867798,226.220184 
	C263.867798,201.094284 263.867798,176.368774 263.867798,151.318390 
	C350.994659,151.318390 438.212860,151.318390 526.001526,151.318390 
	C526.001526,169.645416 526.001526,188.072708 526.001526,207.000000 
z"/>
<path fill="#8dbb47" opacity="1.000000" stroke="none" 
	d="
M1021.302124,225.703751 
	C1040.646851,247.049820 1051.330444,274.107391 1050.893066,300.654846 
	C1026.159424,300.654846 1001.414673,300.654846 976.729919,300.654846 
	C975.490173,295.792267 974.738159,290.526031 972.817078,285.727814 
	C966.173157,269.133545 947.601990,260.204987 929.600525,264.543640 
	C911.227478,268.971832 899.770081,284.922272 901.098511,304.222626 
	C902.325195,322.045319 916.267578,336.856110 934.000732,338.033081 
	C950.007629,339.095459 965.737671,340.686829 980.771790,346.900696 
	C1024.760620,365.081970 1053.832642,409.216614 1050.676636,456.662048 
	C1047.621582,502.590668 1023.431458,534.749573 981.861206,554.041992 
	C980.053772,554.880798 978.177856,555.572083 976.126160,556.417664 
	C976.126160,571.044800 976.126160,585.683716 976.126160,600.661499 
	C951.153076,600.661499 926.414734,600.661499 901.233032,600.661499 
	C901.233032,586.154236 901.233032,571.411743 901.233032,556.846069 
	C846.692871,535.548279 825.282471,487.053467 826.219055,451.296570 
	C850.947876,451.296570 875.688477,451.296570 900.836060,451.296570 
	C901.347473,460.255768 903.893311,468.643280 909.969604,475.720428 
	C920.659729,488.171265 939.885925,492.117676 955.143921,484.888245 
	C970.193542,477.757538 978.508911,460.967834 975.325562,444.139130 
	C972.041321,426.777100 959.160706,414.598755 941.812317,413.892487 
	C921.387817,413.060944 901.734924,409.650513 884.022461,399.014526 
	C844.512756,375.289703 823.657288,340.239624 826.527588,294.139771 
	C829.442261,247.327377 855.221191,215.287872 898.068359,196.794052 
	C898.972656,196.403687 899.868530,195.993668 900.960327,195.507248 
	C900.960327,180.892227 900.960327,166.255875 900.960327,151.307495 
	C925.915588,151.307495 950.652710,151.307495 975.847229,151.307495 
	C975.847229,165.917877 975.847229,180.666336 975.847229,195.465149 
	C993.439209,202.117661 1008.464111,211.971359 1021.302124,225.703751 
z"/>
<path fill="#8dbb47" opacity="1.000000" stroke="none" 
	d="
M750.999390,978.000000 
	C750.999390,1002.476929 750.999390,1026.453857 750.999390,1050.717529 
	C726.046204,1050.717529 701.304626,1050.717529 676.274536,1050.717529 
	C676.274536,851.029236 676.274536,651.291687 676.274536,451.267761 
	C700.935669,451.267761 725.679504,451.267761 750.999390,451.267761 
	C750.999390,626.645203 750.999390,802.072571 750.999390,978.000000 
z"/>
<path fill="#8dbb47" opacity="1.000000" stroke="none" 
	d="
M529.165894,1051.001709 
	C527.796326,1050.556763 526.563965,1050.325317 526.125122,1049.608276 
	C525.677368,1048.876953 526.001099,1047.668335 526.001099,1046.668579 
	C526.000061,899.004944 526.000244,751.341248 526.000305,603.677612 
	C526.000305,603.016724 526.000305,602.355896 526.000305,601.347534 
	C550.833801,601.347534 575.573364,601.347534 600.656860,601.347534 
	C600.656860,750.843323 600.656860,900.579834 600.656860,1051.002075 
	C577.148132,1051.002075 553.399719,1051.002075 529.165894,1051.001709 
z"/>
<path fill="#8dbb47" opacity="1.000000" stroke="none" 
	d="
M826.000732,878.000000 
	C826.000732,810.528076 826.000732,743.556152 826.000732,676.283813 
	C850.979492,676.283813 875.711487,676.283813 900.722778,676.283813 
	C900.722778,800.946045 900.722778,925.677612 900.722778,1050.706787 
	C876.050476,1050.706787 851.314331,1050.706787 826.000732,1050.706787 
	C826.000732,993.356201 826.000732,935.928101 826.000732,878.000000 
z"/>
<path fill="#8dbb47" opacity="1.000000" stroke="none" 
	d="
M975.999817,930.000000 
	C976.006287,845.337769 976.012634,761.175598 976.025513,677.013367 
	C976.025513,676.867554 976.121704,676.721680 976.274231,676.287415 
	C1000.913391,676.287415 1025.656738,676.287415 1050.716919,676.287415 
	C1050.716919,800.932617 1050.716919,925.664490 1050.716919,1050.699829 
	C1026.022949,1050.699829 1001.286621,1050.699829 975.999817,1050.699829 
	C975.999817,1010.687683 975.999817,970.593872 975.999817,930.000000 
z"/>
<path fill="#8dbb47" opacity="1.000000" stroke="none" 
	d="
M375.999756,1010.000000 
	C375.999756,923.529602 375.999756,837.559143 375.999756,751.292969 
	C400.906921,751.292969 425.643982,751.292969 450.691284,751.292969 
	C450.691284,850.950073 450.691284,950.675049 450.691284,1050.701538 
	C426.020905,1050.701538 401.285889,1050.701538 375.999756,1050.701538 
	C375.999756,1037.358154 375.999756,1023.929077 375.999756,1010.000000 
z"/>
<path fill="#8dbb47" opacity="1.000000" stroke="none" 
	d="
M275.000000,900.999390 
	C283.498169,901.005859 291.496307,901.010132 299.494446,901.027100 
	C299.805908,901.027771 300.117065,901.149841 300.713409,901.275330 
	C300.713409,950.955322 300.713409,1000.684753 300.713409,1050.709106 
	C276.048004,1050.709106 251.313919,1050.709106 226.289764,1050.709106 
	C226.289764,1001.052124 226.289764,951.318665 226.289764,900.999390 
	C242.312378,900.999390 258.406189,900.999390 275.000000,900.999390 
z"/>
</svg>