<svg version="1.1" id="Layer_1" xmlns="http://www.w3.org/2000/svg" xmlns:xlink="http://www.w3.org/1999/xlink" x="0px" y="0px"
	 width="100%" viewBox="0 0 687 687" enable-background="new 0 0 687 687" xml:space="preserve">

<path fill="#203447" opacity="1.000000" stroke="none" 
	d="
M354.839722,666.773804 
	C321.524384,667.850037 289.407898,663.435425 258.033569,653.817688 
	C216.280457,641.018188 179.142990,619.965576 146.189301,591.294556 
	C120.139832,568.630493 98.596985,542.297546 81.628624,512.358215 
	C68.173447,488.617615 57.632050,463.532990 51.780415,436.744659 
	C48.758888,422.912354 46.025139,408.987274 43.968571,394.985535 
	C42.775688,386.864075 42.936516,378.507660 42.929562,370.256561 
	C42.918941,357.655426 43.047989,345.043243 43.606049,332.457397 
	C43.867535,326.560181 45.224022,320.706268 46.162823,314.845306 
	C49.607944,293.337219 55.354748,272.434875 63.326214,252.186249 
	C75.928856,220.173798 93.400848,191.092087 115.788834,164.882217 
	C139.962646,136.581665 168.307724,113.465462 200.926544,95.736862 
	C230.181671,79.836418 268.201416,96.074104 277.782959,128.025406 
	C285.476807,153.682053 275.746216,178.745865 252.469513,192.080002 
	C216.261444,212.821884 188.899490,241.728409 170.869751,279.395508 
	C162.818283,296.216400 157.330444,313.917969 154.437210,332.275787 
	C151.528442,350.732117 151.296234,369.203766 153.839249,387.943024 
	C158.700516,423.765137 171.892731,455.816345 194.426117,483.888733 
	C222.130585,518.403259 257.510986,541.443970 300.609589,551.921936 
	C322.342468,557.205444 344.379272,558.533569 366.848206,556.267273 
	C414.190552,551.492065 454.077454,531.621521 487.049347,497.993896 
	C508.199951,476.422577 523.393311,450.890228 532.392029,421.809357 
	C540.857117,394.452820 543.880981,366.808655 540.065063,338.223694 
	C534.747437,298.388794 519.100525,263.627686 492.592468,233.432617 
	C477.233276,215.937195 459.050507,202.340469 439.080475,190.714890 
	C415.917938,177.230789 406.573364,145.911423 418.261383,121.792198 
	C428.340607,100.992912 445.450073,90.417427 468.147919,89.541016 
	C479.799438,89.091125 490.466187,93.796478 500.446472,99.788017 
	C519.713928,111.354942 538.066772,124.289612 554.373047,139.693604 
	C577.268738,161.322433 596.825256,185.750076 612.260559,213.378159 
	C625.215393,236.566467 635.256287,260.935577 641.863342,286.604675 
	C647.877380,309.969727 651.029541,333.791229 651.347900,357.998322 
	C651.622131,378.846191 650.083984,399.531769 646.141724,419.947083 
	C641.983948,441.478516 635.585510,462.431885 626.788452,482.561371 
	C616.510742,506.079041 603.755310,528.165344 587.910217,548.418152 
	C568.659058,573.024414 546.459045,594.508789 520.742126,612.327637 
	C491.358856,632.686829 459.552429,647.828430 424.885742,656.689697 
	C413.344177,659.639771 401.706573,662.497437 389.939697,664.201721 
	C378.515839,665.856201 366.869843,665.976746 354.839722,666.773804 
z"/>
<path fill="#94BE4D" opacity="1.000000" stroke="none" 
	d="
M379.207947,361.215149 
	C364.753387,388.738007 350.511749,415.958344 336.289185,443.188690 
	C332.677734,450.103088 329.164948,457.069153 325.533875,463.973145 
	C323.471954,467.893646 320.237061,470.710846 315.783264,470.819153 
	C311.121918,470.932526 307.067688,468.241760 305.458099,464.146118 
	C304.030670,460.513824 304.083740,456.121613 304.215607,452.088776 
	C304.577576,441.020203 305.227905,429.957916 305.949982,418.905273 
	C306.523407,410.128082 307.572327,401.379761 308.051086,392.599091 
	C308.817139,378.549438 309.211945,364.479889 309.914886,350.426300 
	C310.213348,344.459595 310.703461,338.488068 311.446747,332.561432 
	C312.519318,324.008972 310.399017,319.804352 302.721710,316.316559 
	C289.240845,310.192139 275.838898,303.885254 262.253235,298.002808 
	C248.360519,291.987427 249.865799,284.883240 254.668213,275.435150 
	C265.128387,254.856094 276.238861,234.608780 286.900604,214.130646 
	C296.490479,195.711227 305.753571,177.121857 315.311554,158.685608 
	C325.939209,138.186066 336.778534,117.796333 347.449005,97.318855 
	C356.963531,79.059715 366.381042,60.750015 375.825317,42.454330 
	C379.028992,36.248093 382.133484,29.990213 385.378021,23.805635 
	C387.598511,19.573002 392.754852,17.548485 397.795898,18.749630 
	C402.929382,19.972797 406.404877,23.447517 405.975128,28.534481 
	C405.321747,36.268890 403.935028,43.954468 402.601044,51.615738 
	C399.045898,72.033875 395.442505,92.444511 391.686066,112.826385 
	C388.684143,129.114670 385.376373,145.346359 382.302185,161.621628 
	C379.532166,176.286652 376.738708,190.950424 374.257599,205.665665 
	C372.762665,214.531876 375.428406,218.416519 383.630737,221.105240 
	C398.307648,225.916336 413.011200,230.655365 427.598755,235.726257 
	C436.922150,238.967270 439.361420,245.293228 434.859100,254.239838 
	C428.805603,266.268646 422.437134,278.138763 416.224609,290.087769 
	C403.951538,313.693390 391.692688,337.306396 379.207947,361.215149 
z"/>
</svg>