<svg xmlns="http://www.w3.org/2000/svg" xmlns:xlink="http://www.w3.org/1999/xlink" version="1.1" x="0px" y="0px" viewBox="0 0 128 160" style="enable-background:new 0 0 128 128;" xml:space="preserve"><g fill="#8dbb47" stroke="#8dbb47"><path d="M103.6,64c0.7,0,1.4-0.5,1.7-1.1c0.1-0.2,0.1-0.5,0.1-0.7c0-0.1,0-0.2,0-0.4c-0.2-0.8-0.9-1.4-1.8-1.4   c-0.9,0-1.6,0.6-1.8,1.4c0,0.1,0,0.2,0,0.4C101.8,63.2,102.6,64,103.6,64z"/><path d="M96.4,60.4c-0.9,0-1.6,0.6-1.8,1.4c0,0.1,0,0.2,0,0.4c0,1,0.8,1.8,1.8,1.8s1.8-0.8,1.8-1.8c0-0.1,0-0.2,0-0.4   C98,61,97.3,60.4,96.4,60.4z"/><circle cx="100" cy="58.6" r="1.8"/><circle cx="103.6" cy="69.4" r="1.8"/><circle cx="100" cy="73" r="1.8"/><circle cx="107.2" cy="73" r="1.8"/><circle cx="100" cy="65.8" r="1.8"/><path d="M103.6,89.2c-1,0-1.8,0.8-1.8,1.8c0,1,0.8,1.8,1.8,1.8c0.7,0,1.4-0.5,1.7-1.1c0.1-0.2,0.1-0.5,0.1-0.7   C105.4,90,104.6,89.2,103.6,89.2z"/><circle cx="96.4" cy="91" r="1.8"/><circle cx="103.6" cy="83.8" r="1.8"/><circle cx="96.4" cy="83.8" r="1.8"/><circle cx="118" cy="83.8" r="1.8"/><circle cx="110.8" cy="83.8" r="1.8"/><circle cx="100" cy="87.4" r="1.8"/><circle cx="107.2" cy="87.4" r="1.8"/><circle cx="100" cy="80.2" r="1.8"/><circle cx="107.2" cy="80.2" r="1.8"/><circle cx="110.8" cy="69.4" r="1.8"/><path d="M89.2,35.2c1,0,1.8-0.8,1.8-1.8c0-0.1,0-0.2,0-0.4c-0.2-0.8-0.9-1.4-1.8-1.4s-1.6,0.6-1.8,1.4c0,0.1,0,0.2,0,0.4   C87.4,34.4,88.2,35.2,89.2,35.2z"/><circle cx="85.6" cy="29.8" r="1.8"/><circle cx="96.4" cy="40.6" r="1.8"/><circle cx="89.2" cy="40.6" r="1.8"/><circle cx="85.6" cy="44.2" r="1.8"/><circle cx="92.8" cy="44.2" r="1.8"/><circle cx="85.6" cy="37" r="1.8"/><circle cx="92.8" cy="37" r="1.8"/><path d="M89.2,64c1,0,1.8-0.8,1.8-1.8c0-0.1,0-0.2,0-0.4c-0.2-0.8-0.9-1.4-1.8-1.4s-1.6,0.6-1.8,1.4c0,0.1,0,0.2,0,0.4   C87.4,63.2,88.2,64,89.2,64z"/><circle cx="96.4" cy="55" r="1.8"/><circle cx="89.2" cy="55" r="1.8"/><circle cx="85.6" cy="58.6" r="1.8"/><circle cx="92.8" cy="58.6" r="1.8"/><circle cx="85.6" cy="51.4" r="1.8"/><circle cx="92.8" cy="51.4" r="1.8"/><circle cx="96.4" cy="69.4" r="1.8"/><circle cx="89.2" cy="69.4" r="1.8"/><circle cx="85.6" cy="73" r="1.8"/><circle cx="92.8" cy="73" r="1.8"/><circle cx="85.6" cy="65.8" r="1.8"/><circle cx="92.8" cy="65.8" r="1.8"/><circle cx="89.2" cy="91" r="1.8"/><circle cx="118" cy="91" r="1.8"/><circle cx="110.8" cy="91" r="1.8"/><circle cx="89.2" cy="83.8" r="1.8"/><circle cx="85.6" cy="87.4" r="1.8"/><circle cx="92.8" cy="87.4" r="1.8"/><circle cx="114.4" cy="87.4" r="1.8"/><circle cx="89.2" cy="98.2" r="1.8"/><circle cx="85.6" cy="80.2" r="1.8"/><circle cx="92.8" cy="80.2" r="1.8"/><circle cx="85.6" cy="94.6" r="1.8"/><circle cx="92.8" cy="94.6" r="1.8"/><circle cx="100" cy="94.6" r="1.8"/><path d="M74.8,35.2c0.7,0,1.4-0.5,1.7-1.1c0.1-0.2,0.1-0.5,0.1-0.7c0-0.1,0-0.2,0-0.4c-0.2-0.8-0.9-1.4-1.8-1.4S73.2,32.2,73,33   c0,0.1,0,0.2,0,0.4C73,34.4,73.8,35.2,74.8,35.2z"/><circle cx="71.2" cy="29.8" r="1.8"/><circle cx="78.4" cy="29.8" r="1.8"/><path d="M74.8,46c-0.9,0-1.6,0.6-1.8,1.4c0,0.1,0,0.2,0,0.4c0,1,0.8,1.8,1.8,1.8c0.7,0,1.4-0.5,1.7-1.1c0.1-0.2,0.1-0.5,0.1-0.7   c0-0.1,0-0.2,0-0.4C76.4,46.6,75.7,46,74.8,46z"/><circle cx="74.8" cy="40.6" r="1.8"/><circle cx="71.2" cy="44.2" r="1.8"/><circle cx="78.4" cy="44.2" r="1.8"/><circle cx="71.2" cy="37" r="1.8"/><circle cx="78.4" cy="37" r="1.8"/><path d="M74.8,64c0.7,0,1.4-0.5,1.7-1.1c0.1-0.2,0.1-0.5,0.1-0.7c0-0.1,0-0.2,0-0.4c-0.2-0.8-0.9-1.4-1.8-1.4S73.2,61,73,61.8   c0,0.1,0,0.2,0,0.4C73,63.2,73.8,64,74.8,64z"/><circle cx="74.8" cy="55" r="1.8"/><circle cx="71.2" cy="58.6" r="1.8"/><circle cx="78.4" cy="58.6" r="1.8"/><circle cx="71.2" cy="51.4" r="1.8"/><circle cx="78.4" cy="51.4" r="1.8"/><circle cx="74.8" cy="69.4" r="1.8"/><circle cx="67.6" cy="69.4" r="1.8"/><circle cx="71.2" cy="73" r="1.8"/><circle cx="78.4" cy="73" r="1.8"/><circle cx="71.2" cy="65.8" r="1.8"/><circle cx="78.4" cy="65.8" r="1.8"/><path d="M74.8,89.2c-1,0-1.8,0.8-1.8,1.8c0,1,0.8,1.8,1.8,1.8c0.7,0,1.4-0.5,1.7-1.1c0.1-0.2,0.1-0.5,0.1-0.7   C76.6,90,75.8,89.2,74.8,89.2z"/><circle cx="67.6" cy="91" r="1.8"/><circle cx="74.8" cy="83.8" r="1.8"/><circle cx="67.6" cy="83.8" r="1.8"/><circle cx="71.2" cy="87.4" r="1.8"/><circle cx="78.4" cy="87.4" r="1.8"/><circle cx="71.2" cy="80.2" r="1.8"/><circle cx="78.4" cy="80.2" r="1.8"/><circle cx="67.6" cy="98.2" r="1.8"/><circle cx="71.2" cy="94.6" r="1.8"/><circle cx="78.4" cy="94.6" r="1.8"/><circle cx="114.4" cy="94.6" r="1.8"/><circle cx="107.2" cy="94.6" r="1.8"/><path d="M67.6,31.6c-0.9,0-1.6,0.6-1.8,1.4c0,0.1,0,0.2,0,0.4c0,1,0.8,1.8,1.8,1.8s1.8-0.8,1.8-1.8c0-0.1,0-0.2,0-0.4   C69.2,32.2,68.5,31.6,67.6,31.6z"/><path d="M60.4,31.6c-0.9,0-1.6,0.6-1.8,1.4c0,0.1,0,0.2,0,0.4c0,1,0.8,1.8,1.8,1.8c1,0,1.8-0.8,1.8-1.8c0-0.1,0-0.2,0-0.4   C62,32.2,61.3,31.6,60.4,31.6z"/><circle cx="67.6" cy="26.2" r="1.8"/><circle cx="60.4" cy="26.2" r="1.8"/><circle cx="56.8" cy="29.8" r="1.8"/><circle cx="64" cy="29.8" r="1.8"/><path d="M67.6,46c-0.9,0-1.6,0.6-1.8,1.4c0,0.1,0,0.2,0,0.4c0,1,0.8,1.8,1.8,1.8s1.8-0.8,1.8-1.8c0-0.1,0-0.2,0-0.4   C69.2,46.6,68.5,46,67.6,46z"/><path d="M60.4,49.6c1,0,1.8-0.8,1.8-1.8c0-0.1,0-0.2,0-0.4C62,46.6,61.3,46,60.4,46c-0.9,0-1.6,0.6-1.8,1.4c0,0.1,0,0.2,0,0.4   C58.6,48.8,59.4,49.6,60.4,49.6z"/><circle cx="67.6" cy="40.6" r="1.8"/><circle cx="60.4" cy="40.6" r="1.8"/><circle cx="56.8" cy="44.2" r="1.8"/><circle cx="64" cy="44.2" r="1.8"/><circle cx="56.8" cy="37" r="1.8"/><circle cx="64" cy="37" r="1.8"/><path d="M67.6,60.4c-0.9,0-1.6,0.6-1.8,1.4c0,0.1,0,0.2,0,0.4c0,1,0.8,1.8,1.8,1.8s1.8-0.8,1.8-1.8c0-0.1,0-0.2,0-0.4   C69.2,61,68.5,60.4,67.6,60.4z"/><path d="M60.4,64c1,0,1.8-0.8,1.8-1.8c0-0.1,0-0.2,0-0.4c-0.2-0.8-0.9-1.4-1.8-1.4c-0.9,0-1.6,0.6-1.8,1.4c0,0.1,0,0.2,0,0.4   C58.6,63.2,59.4,64,60.4,64z"/><circle cx="67.6" cy="55" r="1.8"/><circle cx="60.4" cy="55" r="1.8"/><circle cx="56.8" cy="58.6" r="1.8"/><circle cx="64" cy="58.6" r="1.8"/><circle cx="56.8" cy="51.4" r="1.8"/><circle cx="64" cy="51.4" r="1.8"/><circle cx="60.4" cy="69.4" r="1.8"/><circle cx="56.8" cy="73" r="1.8"/><circle cx="64" cy="73" r="1.8"/><circle cx="56.8" cy="65.8" r="1.8"/><circle cx="64" cy="65.8" r="1.8"/><circle cx="60.4" cy="91" r="1.8"/><circle cx="60.4" cy="83.8" r="1.8"/><circle cx="56.8" cy="87.4" r="1.8"/><circle cx="64" cy="87.4" r="1.8"/><circle cx="56.8" cy="80.2" r="1.8"/><circle cx="64" cy="80.2" r="1.8"/><circle cx="64" cy="94.6" r="1.8"/><circle cx="56.8" cy="101.8" r="1.8"/><circle cx="56.8" cy="94.6" r="1.8"/><circle cx="49.6" cy="87.4" r="1.8"/><circle cx="49.6" cy="80.2" r="1.8"/><circle cx="49.6" cy="101.8" r="1.8"/><circle cx="49.6" cy="94.6" r="1.8"/><path d="M46,31.6c-0.9,0-1.6,0.6-1.8,1.4c0,0.1,0,0.2,0,0.4c0,1,0.8,1.8,1.8,1.8c0.7,0,1.4-0.5,1.7-1.1c0.1-0.2,0.1-0.5,0.1-0.7   c0-0.1,0-0.2,0-0.4C47.6,32.2,46.9,31.6,46,31.6z"/><circle cx="46" cy="26.2" r="1.8"/><circle cx="42.4" cy="29.8" r="1.8"/><circle cx="49.6" cy="29.8" r="1.8"/><circle cx="42.4" cy="22.6" r="1.8"/><circle cx="49.6" cy="22.6" r="1.8"/><path d="M46,49.6c0.7,0,1.4-0.5,1.7-1.1c0.1-0.2,0.1-0.5,0.1-0.7c0-0.1,0-0.2,0-0.4C47.6,46.6,46.9,46,46,46   c-0.9,0-1.6,0.6-1.8,1.4c0,0.1,0,0.2,0,0.4C44.2,48.8,45,49.6,46,49.6z"/><circle cx="46" cy="40.6" r="1.8"/><circle cx="42.4" cy="44.2" r="1.8"/><circle cx="49.6" cy="44.2" r="1.8"/><circle cx="42.4" cy="37" r="1.8"/><circle cx="49.6" cy="37" r="1.8"/><path d="M46,64c0.7,0,1.4-0.5,1.7-1.1c0.1-0.2,0.1-0.5,0.1-0.7c0-0.1,0-0.2,0-0.4c-0.2-0.8-0.9-1.4-1.8-1.4c-0.9,0-1.6,0.6-1.8,1.4   c0,0.1,0,0.2,0,0.4C44.2,63.2,45,64,46,64z"/><circle cx="46" cy="55" r="1.8"/><circle cx="42.4" cy="58.6" r="1.8"/><circle cx="49.6" cy="58.6" r="1.8"/><circle cx="42.4" cy="51.4" r="1.8"/><circle cx="49.6" cy="51.4" r="1.8"/><circle cx="46" cy="69.4" r="1.8"/><circle cx="49.6" cy="73" r="1.8"/><circle cx="42.4" cy="87.4" r="1.8"/><circle cx="42.4" cy="80.2" r="1.8"/><circle cx="42.4" cy="101.8" r="1.8"/><circle cx="42.4" cy="94.6" r="1.8"/><circle cx="42.4" cy="73" r="1.8"/><circle cx="42.4" cy="65.8" r="1.8"/><circle cx="35.2" cy="87.4" r="1.8"/><circle cx="35.2" cy="80.2" r="1.8"/><circle cx="35.2" cy="94.6" r="1.8"/><circle cx="35.2" cy="73" r="1.8"/><circle cx="35.2" cy="65.8" r="1.8"/><circle cx="28" cy="87.4" r="1.8"/><circle cx="28" cy="80.2" r="1.8"/><circle cx="28" cy="94.6" r="1.8"/><circle cx="28" cy="73" r="1.8"/><circle cx="28" cy="65.8" r="1.8"/><circle cx="49.6" cy="65.8" r="1.8"/><path d="M38.8,31.6c-0.9,0-1.6,0.6-1.8,1.4c0,0.1,0,0.2,0,0.4c0,1,0.8,1.8,1.8,1.8s1.8-0.8,1.8-1.8c0-0.1,0-0.2,0-0.4   C40.4,32.2,39.7,31.6,38.8,31.6z"/><path d="M31.6,31.6c-0.9,0-1.6,0.6-1.8,1.4c0,0.1,0,0.2,0,0.4c0,1,0.8,1.8,1.8,1.8c1,0,1.8-0.8,1.8-1.8c0-0.1,0-0.2,0-0.4   C33.2,32.2,32.5,31.6,31.6,31.6z"/><circle cx="38.8" cy="26.2" r="1.8"/><circle cx="31.6" cy="26.2" r="1.8"/><circle cx="28" cy="29.8" r="1.8"/><circle cx="35.2" cy="29.8" r="1.8"/><circle cx="35.2" cy="22.6" r="1.8"/><path d="M38.8,49.6c1,0,1.8-0.8,1.8-1.8c0-0.1,0-0.2,0-0.4c-0.2-0.8-0.9-1.4-1.8-1.4s-1.6,0.6-1.8,1.4c0,0.1,0,0.2,0,0.4   C37,48.8,37.8,49.6,38.8,49.6z"/><path d="M31.6,49.6c1,0,1.8-0.8,1.8-1.8c0-0.1,0-0.2,0-0.4c-0.2-0.8-0.9-1.4-1.8-1.4c-0.9,0-1.6,0.6-1.8,1.4c0,0.1,0,0.2,0,0.4   C29.8,48.8,30.6,49.6,31.6,49.6z"/><circle cx="38.8" cy="40.6" r="1.8"/><circle cx="31.6" cy="40.6" r="1.8"/><circle cx="28" cy="44.2" r="1.8"/><circle cx="35.2" cy="44.2" r="1.8"/><circle cx="28" cy="37" r="1.8"/><circle cx="35.2" cy="37" r="1.8"/><path d="M38.8,64c1,0,1.8-0.8,1.8-1.8c0-0.1,0-0.2,0-0.4c-0.2-0.8-0.9-1.4-1.8-1.4S37.2,61,37,61.8c0,0.1,0,0.2,0,0.4   C37,63.2,37.8,64,38.8,64z"/><circle cx="38.8" cy="55" r="1.8"/><circle cx="31.6" cy="55" r="1.8"/><circle cx="35.2" cy="58.6" r="1.8"/><circle cx="28" cy="58.6" r="1.8"/><circle cx="20.8" cy="87.4" r="1.8"/><circle cx="20.8" cy="80.2" r="1.8"/><circle cx="20.8" cy="94.6" r="1.8"/><circle cx="20.8" cy="73" r="1.8"/><circle cx="20.8" cy="65.8" r="1.8"/><circle cx="20.8" cy="58.6" r="1.8"/><circle cx="13.6" cy="80.2" r="1.8"/><circle cx="13.6" cy="73" r="1.8"/><circle cx="13.6" cy="65.8" r="1.8"/><circle cx="6.4" cy="80.2" r="1.8"/><circle cx="6.4" cy="73" r="1.8"/><circle cx="6.4" cy="65.8" r="1.8"/><circle cx="13.6" cy="58.6" r="1.8"/><circle cx="28" cy="51.4" r="1.8"/><circle cx="35.2" cy="51.4" r="1.8"/><path d="M17.2,35.2c0.7,0,1.4-0.5,1.7-1.1c0.1-0.2,0.1-0.5,0.1-0.7c0-0.1,0-0.2,0-0.4c-0.2-0.8-0.9-1.4-1.8-1.4   c-0.9,0-1.6,0.6-1.8,1.4c0,0.1,0,0.2,0,0.4C15.4,34.4,16.2,35.2,17.2,35.2z"/><circle cx="20.8" cy="29.8" r="1.8"/><path d="M17.2,46c-0.9,0-1.6,0.6-1.8,1.4c0,0.1,0,0.2,0,0.4c0,1,0.8,1.8,1.8,1.8c0.7,0,1.4-0.5,1.7-1.1C19,48.3,19,48,19,47.8   c0-0.1,0-0.2,0-0.4C18.8,46.6,18.1,46,17.2,46z"/><circle cx="17.2" cy="40.6" r="1.8"/><circle cx="13.6" cy="44.2" r="1.8"/><circle cx="20.8" cy="44.2" r="1.8"/><circle cx="20.8" cy="37" r="1.8"/><circle cx="17.2" cy="55" r="1.8"/><circle cx="13.6" cy="51.4" r="1.8"/><circle cx="6.4" cy="58.6" r="1.8"/><circle cx="20.8" cy="51.4" r="1.8"/><path d="M10,49.6c1,0,1.8-0.8,1.8-1.8c0-0.1,0-0.2,0-0.4C11.6,46.6,10.9,46,10,46s-1.6,0.6-1.8,1.4c0,0.1,0,0.2,0,0.4   C8.2,48.8,9,49.6,10,49.6z"/><circle cx="10" cy="55" r="1.8"/><circle cx="103.6" cy="76.6" r="1.8"/><circle cx="96.4" cy="76.6" r="1.8"/><circle cx="114.4" cy="73" r="1.8"/><circle cx="114.4" cy="80.2" r="1.8"/><circle cx="121.6" cy="80.2" r="1.8"/><circle cx="118" cy="76.6" r="1.8"/><circle cx="110.8" cy="76.6" r="1.8"/><circle cx="125.2" cy="76.6" r="1.8"/><circle cx="89.2" cy="76.6" r="1.8"/><circle cx="82" cy="76.6" r="1.8"/><circle cx="82" cy="91" r="1.8"/><circle cx="82" cy="83.8" r="1.8"/><circle cx="82" cy="69.4" r="1.8"/><circle cx="82" cy="62.2" r="1.8"/><circle cx="82" cy="55" r="1.8"/><circle cx="82" cy="47.8" r="1.8"/><path d="M82,35.2c1,0,1.8-0.8,1.8-1.8c0-0.1,0-0.2,0-0.4c-0.2-0.8-0.9-1.4-1.8-1.4s-1.6,0.6-1.8,1.4c0,0.1,0,0.2,0,0.4   C80.2,34.4,81,35.2,82,35.2z"/><circle cx="82" cy="40.6" r="1.8"/><path d="M53.2,31.6c-0.9,0-1.6,0.6-1.8,1.4c0,0.1,0,0.2,0,0.4c0,1,0.8,1.8,1.8,1.8c1,0,1.8-0.8,1.8-1.8c0-0.1,0-0.2,0-0.4   C54.8,32.2,54.1,31.6,53.2,31.6z"/><circle cx="53.2" cy="26.2" r="1.8"/><path d="M55,47.4c-0.2-0.8-0.9-1.4-1.8-1.4c-0.9,0-1.6,0.6-1.8,1.4c0,0.1,0,0.2,0,0.4c0,1,0.8,1.8,1.8,1.8c1,0,1.8-0.8,1.8-1.8   C55,47.7,55,47.6,55,47.4z"/><circle cx="53.2" cy="40.6" r="1.8"/><path d="M24.4,35.2c1,0,1.8-0.8,1.8-1.8c0-0.1,0-0.2,0-0.4c-0.2-0.8-0.9-1.4-1.8-1.4c-0.9,0-1.6,0.6-1.8,1.4c0,0.1,0,0.2,0,0.4   C22.6,34.4,23.4,35.2,24.4,35.2z"/><path d="M26.2,47.4C26,46.6,25.3,46,24.4,46c-0.9,0-1.6,0.6-1.8,1.4c0,0.1,0,0.2,0,0.4c0,1,0.8,1.8,1.8,1.8c1,0,1.8-0.8,1.8-1.8   C26.2,47.7,26.2,47.6,26.2,47.4z"/><circle cx="24.4" cy="40.6" r="1.8"/><path d="M53.2,64c1,0,1.8-0.8,1.8-1.8c0-0.1,0-0.2,0-0.4c-0.2-0.8-0.9-1.4-1.8-1.4c-0.9,0-1.6,0.6-1.8,1.4c0,0.1,0,0.2,0,0.4   C51.4,63.2,52.2,64,53.2,64z"/><circle cx="53.2" cy="55" r="1.8"/><circle cx="53.2" cy="69.4" r="1.8"/><circle cx="53.2" cy="83.8" r="1.8"/><circle cx="53.2" cy="76.6" r="1.8"/><circle cx="74.8" cy="76.6" r="1.8"/><circle cx="67.6" cy="76.6" r="1.8"/><circle cx="60.4" cy="76.6" r="1.8"/><circle cx="53.2" cy="91" r="1.8"/><circle cx="60.4" cy="98.2" r="1.8"/><circle cx="60.4" cy="105.4" r="1.8"/><circle cx="53.3" cy="98.2" r="1.8"/><circle cx="53.3" cy="105.4" r="1.8"/><circle cx="46" cy="83.8" r="1.8"/><circle cx="46" cy="76.6" r="1.8"/><circle cx="46" cy="91" r="1.8"/><circle cx="46" cy="98.2" r="1.8"/><circle cx="38.8" cy="69.4" r="1.8"/><circle cx="38.8" cy="83.8" r="1.8"/><circle cx="38.8" cy="76.6" r="1.8"/><circle cx="38.8" cy="91" r="1.8"/><circle cx="38.8" cy="98.2" r="1.8"/><path d="M31.6,64c1,0,1.8-0.8,1.8-1.8c0-0.1,0-0.2,0-0.4c-0.2-0.8-0.9-1.4-1.8-1.4S30,61,29.8,61.8c0,0.1,0,0.2,0,0.4   C29.8,63.2,30.6,64,31.6,64z"/><circle cx="31.6" cy="69.4" r="1.8"/><circle cx="31.6" cy="83.8" r="1.8"/><circle cx="31.6" cy="76.6" r="1.8"/><circle cx="31.6" cy="91" r="1.8"/><circle cx="31.6" cy="98.2" r="1.8"/><circle cx="24.4" cy="55" r="1.8"/><path d="M24.4,64c1,0,1.8-0.8,1.8-1.8c0-0.1,0-0.2,0-0.4c-0.2-0.8-0.9-1.4-1.8-1.4s-1.6,0.6-1.8,1.4c0,0.1,0,0.2,0,0.4   C22.6,63.2,23.4,64,24.4,64z"/><circle cx="24.4" cy="69.4" r="1.8"/><circle cx="24.4" cy="83.8" r="1.8"/><circle cx="24.4" cy="76.6" r="1.8"/><circle cx="24.4" cy="91" r="1.8"/><circle cx="24.4" cy="98.2" r="1.8"/><path d="M17.2,64c1,0,1.8-0.8,1.8-1.8c0-0.1,0-0.2,0-0.4c-0.2-0.8-0.9-1.4-1.8-1.4s-1.6,0.6-1.8,1.4c0,0.1,0,0.2,0,0.4   C15.4,63.2,16.2,64,17.2,64z"/><circle cx="17.2" cy="69.4" r="1.8"/><circle cx="17.2" cy="83.8" r="1.8"/><circle cx="17.2" cy="76.6" r="1.8"/><path d="M10,60.4c-0.9,0-1.6,0.6-1.8,1.4c0,0.1,0,0.2,0,0.4c0,1,0.8,1.8,1.8,1.8s1.8-0.8,1.8-1.8c0-0.1,0-0.2,0-0.4   C11.6,61,10.9,60.4,10,60.4z"/><circle cx="10" cy="69.4" r="1.8"/><circle cx="10" cy="83.8" r="1.8"/><circle cx="10" cy="76.6" r="1.8"/><circle cx="2.8" cy="69.4" r="1.8"/><circle cx="2.8" cy="83.8" r="1.8"/><circle cx="2.8" cy="76.6" r="1.8"/><circle cx="96.4" cy="47.8" r="1.8"/><circle cx="89.2" cy="47.8" r="1.8"/></g></svg>