<svg version="1.1" id="Layer_1" xmlns="http://www.w3.org/2000/svg" xmlns:xlink="http://www.w3.org/1999/xlink" x="0px" y="0px"
	 width="100%" viewBox="0 0 1024 1024" enable-background="new 0 0 1024 1024" xml:space="preserve">
<path fill="#8dbb47" opacity="1.000000" stroke="none" 
	d="
M495.570709,956.573975 
	C483.942383,948.719421 480.054626,937.611755 480.082184,924.480713 
	C480.154938,889.816711 480.080811,855.152344 480.062500,820.488159 
	C480.058258,812.494080 479.912842,812.329041 472.000366,812.326904 
	C428.336761,812.315186 384.653870,813.151611 341.013458,812.144043 
	C238.534760,809.777832 159.073761,765.429382 104.385231,678.495300 
	C81.324974,641.838257 68.342194,601.305237 65.663887,557.959656 
	C58.859367,447.835297 102.376411,362.300690 193.020905,300.293457 
	C207.349411,290.491730 223.024750,282.980316 239.189102,276.625885 
	C242.646667,275.266663 244.535263,273.215759 245.490219,269.662903 
	C256.809906,227.548325 277.745758,190.626831 306.053802,157.675583 
	C318.390472,143.315414 338.856079,141.346054 352.940613,153.360840 
	C366.839233,165.217010 368.227020,185.501633 355.891327,199.913101 
	C343.704132,214.151093 333.001556,229.362701 324.391449,246.029648 
	C314.847809,264.503754 308.183716,283.965454 304.271301,304.376434 
	C301.606964,318.276306 293.517578,327.047424 279.993378,331.431061 
	C218.970398,351.210510 174.895248,390.337280 148.020508,448.527161 
	C136.881363,472.645905 131.173859,498.210236 130.033752,524.823547 
	C128.109161,569.748413 138.589844,611.495850 162.984177,649.232056 
	C196.366440,700.872070 243.739334,732.182068 304.184387,743.692017 
	C317.325897,746.194397 330.575989,746.994141 343.921295,746.978516 
	C386.751556,746.928467 429.581879,746.952515 472.412201,746.941711 
	C479.936249,746.939758 480.062012,746.829773 480.061829,739.527405 
	C480.060822,699.031189 479.994415,658.534790 480.107697,618.038879 
	C480.120270,613.540894 478.792358,610.248657 475.572510,607.036804 
	C420.240723,551.841675 365.007599,496.547638 309.774902,441.253265 
	C300.470367,431.938232 296.539429,420.892456 300.325836,407.964142 
	C303.900452,395.759094 312.158417,387.912994 324.609253,385.296936 
	C336.283905,382.843903 346.715546,385.787445 355.318726,394.405426 
	C387.695190,426.837677 420.090637,459.250977 452.484497,491.665863 
	C459.670013,498.856018 466.863281,506.038574 474.088654,513.188599 
	C475.452759,514.538452 476.683319,516.236938 478.992249,516.249573 
	C480.716766,513.700195 480.070770,510.963898 480.071716,508.388519 
	C480.101532,429.394135 480.070618,350.399750 480.092346,271.405365 
	C480.097168,253.911667 487.910156,242.036026 502.673309,236.732559 
	C521.531006,229.958176 543.143311,243.439606 545.265320,263.390381 
	C545.722229,267.686310 545.918457,272.029602 545.921021,276.351318 
	C545.983521,380.843872 545.988525,485.336456 546.090149,589.828979 
	C546.093811,593.645020 545.143799,597.716370 547.235901,601.348022 
	C550.142883,601.208923 551.254700,599.115601 552.720337,597.651611 
	C591.742188,558.673584 630.723572,519.655090 669.737061,480.668762 
	C682.319397,468.095215 699.271423,466.088135 712.912170,475.457428 
	C729.932068,487.147736 732.085999,510.586212 717.247559,525.527832 
	C688.946594,554.025513 660.493530,582.372131 632.095520,610.773376 
	C605.111694,637.760437 578.194031,664.814636 551.040100,691.629578 
	C547.244629,695.377686 545.890808,699.136658 545.901062,704.348206 
	C546.046021,778.008911 545.986633,851.669861 546.020752,925.330811 
	C546.026245,937.129700 542.648743,947.517761 532.937378,954.754150 
	C521.192322,963.506165 508.645966,963.691406 495.570709,956.573975 
z"/>
<path fill="#8dbb47" opacity="1.000000" stroke="none" 
	d="
M509.008789,64.661285 
	C568.455200,63.883045 622.352234,80.088753 670.714233,113.715607 
	C715.639954,144.953140 748.347290,186.262772 769.306946,236.830917 
	C773.772339,247.604279 777.820374,258.538116 780.423279,269.923645 
	C781.338440,273.926697 783.976868,275.457489 787.377380,276.836121 
	C825.151001,292.150543 858.135681,314.521942 886.007141,344.302979 
	C921.186462,381.892609 944.570435,425.728027 955.318054,476.161438 
	C963.871033,516.296265 963.953735,556.453003 954.626465,596.451172 
	C935.880188,676.840210 890.092041,737.258362 818.551514,777.919617 
	C786.662231,796.044312 752.052490,806.554321 715.451172,810.457214 
	C682.534302,813.967102 649.547363,812.109497 616.601746,812.038879 
	C600.315247,812.003967 586.645691,795.856995 586.869690,779.399292 
	C587.109558,761.776672 601.360168,747.164551 619.060974,746.967773 
	C643.387817,746.697327 667.742798,747.488098 692.043396,746.627502 
	C746.610596,744.695129 793.735046,724.452881 832.892273,686.417480 
	C863.872253,656.325195 883.529480,619.727783 892.092957,577.446472 
	C910.059082,488.740417 870.875916,400.389679 794.684021,353.419556 
	C779.560913,344.096588 763.579651,336.700287 746.609863,331.567200 
	C732.577637,327.322723 724.511108,318.155609 721.670532,303.912231 
	C713.354248,262.211365 694.924805,225.679932 665.531799,194.812790 
	C638.073303,165.977127 605.008484,146.603058 566.559631,136.412216 
	C548.608337,131.654236 530.244934,129.536530 511.738037,129.518036 
	C498.931488,129.505234 486.245789,131.842194 473.541107,133.477020 
	C454.692322,135.902451 438.875916,124.265587 435.867676,105.863747 
	C433.045441,88.600006 444.978668,72.237350 463.346802,69.035088 
	C478.262787,66.434669 493.328491,64.799629 509.008789,64.661285 
z"/>
</svg>